<svg xmlns="http://www.w3.org/2000/svg" xmlns:xlink="http://www.w3.org/1999/xlink" width="64" height="64" viewBox="0 0 64 64"><defs><style>.a,.b{fill:none;}.a{clip-rule:evenodd;}.c{fill:url(#a);}.d{clip-path:url(#b);}.e{clip-path:url(#c);}.f,.h,.j{fill:#fff;}.g{clip-path:url(#d);}.h{opacity:0.5;}.i{clip-path:url(#f);}.j{opacity:0.65;}</style><linearGradient id="a" x1="0.656" y1="0.374" x2="0" y2="1" gradientUnits="objectBoundingBox"><stop offset="0" stop-color="#b7c928"/><stop offset="1" stop-color="#92a81f"/></linearGradient><clipPath id="b"><path class="a" d="M2708.881,169.923c.889.893,1.616.591,1.616-.673v-7.037a2.3,2.3,0,0,0-2.285-2.3h-7c-1.256,0-1.558.731-.669,1.625Z" transform="translate(-2700.032 -159.915)"/></clipPath><clipPath id="c"><rect class="b" width="23" height="23"/></clipPath><clipPath id="d"><path class="a" d="M2684.521,153.554c-.85-.854-.562-1.554.64-1.554h18.711a2.2,2.2,0,0,1,2.186,2.2v18.811c0,1.209-.7,1.5-1.546.644Z" transform="translate(-2684.032 -152)"/></clipPath><clipPath id="f"><path class="a" d="M2699.613,178.648c.821.826,1.493.546,1.493-.622V162.038a2.123,2.123,0,0,0-2.112-2.123h-15.9c-1.161,0-1.439.676-.618,1.5Z" transform="translate(-2682 -159.915)"/></clipPath></defs><g transform="translate(-2.857 -9)"><rect class="b" width="64" height="64" transform="translate(2.857 9)"/><g transform="translate(-2646.143 -111)"><rect class="c" width="46" height="46" rx="8" transform="translate(2658 128)"/><g transform="translate(2678.141 143.293)"><g class="d"><g transform="translate(-8.64 -3.793)"><g class="e"><rect class="f" width="20.049" height="20.104" transform="translate(3.849 -0.999)"/></g></g></g></g><g transform="translate(2670.475 139.5)"><g class="g"><g transform="translate(-0.974)"><g class="e"><rect class="h" width="31.61" height="31.727" transform="translate(-3.818 -4.792)"/></g></g></g></g><g transform="translate(2669.5 143.293)"><g class="i"><g transform="translate(0 -3.793)"><g class="e"><rect class="j" width="28.689" height="28.791" transform="translate(-4.792 -0.999)"/></g></g></g></g></g></g></svg>