<svg xmlns="http://www.w3.org/2000/svg" width="24" height="24" viewBox="0 0 24 24"><rect fill="none" width="24" height="24"/><path d="M-5966.646-7088.454a4.5,4.5,0,0,1-1.616-1.621,4.3,4.3,0,0,1-.6-2.22,4.3,4.3,0,0,1,.6-2.219,4.484,4.484,0,0,1,1.616-1.621,4.3,4.3,0,0,1,2.217-.6,4.3,4.3,0,0,1,2.215.6,4.484,4.484,0,0,1,1.616,1.621,4.3,4.3,0,0,1,.6,2.219,4.3,4.3,0,0,1-.6,2.22,4.5,4.5,0,0,1-1.616,1.621,4.3,4.3,0,0,1-2.215.6A4.3,4.3,0,0,1-5966.646-7088.454Zm1.635-6.5a.209.209,0,0,0-.062.151v3.009a.224.224,0,0,0,.089.178l1.571,1.145a.2.2,0,0,0,.162.036.221.221,0,0,0,.143-.089l.5-.679a.22.22,0,0,0,.044-.163.194.194,0,0,0-.08-.143l-1.143-.824v-2.47a.209.209,0,0,0-.062-.151.2.2,0,0,0-.152-.064h-.857A.2.2,0,0,0-5965.01-7094.952Zm-9.323,5.619A1.669,1.669,0,0,1-5976-7091l.011-11.667a1.664,1.664,0,0,1,1.657-1.666h.833V-7106h1.667v1.667h6.667V-7106h1.667v1.667h.833a1.669,1.669,0,0,1,1.667,1.666V-7098h-1.667v-2.167h-11.667V-7091H-5971v1.666h-3.333Z" transform="translate(5980.001 7109)"/></svg>