<svg xmlns="http://www.w3.org/2000/svg" width="30" height="40" viewBox="0 0 30 40"><path d="M28.906,7.656A3.616,3.616,0,0,1,30,10.313V36.25A3.734,3.734,0,0,1,26.25,40H3.75a3.616,3.616,0,0,1-2.656-1.094A3.616,3.616,0,0,1,0,36.25V3.75A3.619,3.619,0,0,1,.508,1.875,3.822,3.822,0,0,1,1.875.508,3.619,3.619,0,0,1,3.75,0H19.688a3.616,3.616,0,0,1,2.656,1.094ZM20,4.063V10h5.938ZM26.25,36.25V13.75H18.125a1.867,1.867,0,0,1-1.875-1.875V3.75H3.75v32.5ZM14.3,17.813a.879.879,0,0,1,1.406,0l5.625,5.625a.783.783,0,0,1,.234.977A.856.856,0,0,1,20.7,25H16.875v6.563a.934.934,0,0,1-.937.938H14.063a.934.934,0,0,1-.937-.937V25H9.3a.856.856,0,0,1-.859-.586.783.783,0,0,1,.234-.977Z"/></svg>