<svg xmlns="http://www.w3.org/2000/svg" width="30" height="30" viewBox="0 0 30 30"><rect fill="none" width="30" height="30"/><path d="M20,10.244a6.135,6.135,0,0,1-1.738,4.4,5.6,5.6,0,0,1-4.2,1.82H5.352L7.5,18.71a.431.431,0,0,1,0,.7l-.625.654q-.352.368-.664,0L2.148,15.807a.392.392,0,0,1,0-.654L6.211,10.9q.313-.368.664,0l.625.654a.431.431,0,0,1,0,.7L5.352,14.5h8.711a3.827,3.827,0,0,0,2.871-1.247,4.2,4.2,0,0,0,1.191-3.006,4.15,4.15,0,0,0-.586-2.168.805.805,0,0,1-.039-.245.617.617,0,0,1,.117-.368l.664-.7a.545.545,0,0,1,.41-.143.414.414,0,0,1,.332.225A6.127,6.127,0,0,1,20,10.244ZM2.461,12.412a.805.805,0,0,1,.039.245.617.617,0,0,1-.117.368l-.664.7a.545.545,0,0,1-.41.143.414.414,0,0,1-.332-.225A6.127,6.127,0,0,1,0,10.244a6.135,6.135,0,0,1,1.738-4.4,5.6,5.6,0,0,1,4.2-1.82h8.711L12.5,1.778a.431.431,0,0,1,0-.7l.625-.654q.352-.368.664,0l4.063,4.254a.392.392,0,0,1,0,.654L13.789,9.59q-.312.368-.664,0L12.5,8.935a.431.431,0,0,1,0-.7l2.148-2.249H5.938A3.827,3.827,0,0,0,3.066,7.238a4.2,4.2,0,0,0-1.191,3.006A4.15,4.15,0,0,0,2.461,12.412Z" transform="translate(5 4.756)"/></svg>