<svg xmlns="http://www.w3.org/2000/svg" width="30" height="30" viewBox="0 0 30 30"><rect fill="none" width="30" height="30"/><path d="M24.014,6.377a.708.708,0,0,1,.038.225A.5.5,0,0,1,24,6.827a.554.554,0,0,1-.15.188.664.664,0,0,1-.206.113L20.15,8.215V17.33a.578.578,0,0,1-.6.6h-.6a.578.578,0,0,1-.6-.6V8.815l-3,.938V17.33a.578.578,0,0,1-.6.6h-.6a.578.578,0,0,1-.6-.6V10.315l-3,.975V17.33a.578.578,0,0,1-.6.6h-.6a.578.578,0,0,1-.6-.6V11.853l-3,.938V17.33a.578.578,0,0,1-.6.6h-.6a.578.578,0,0,1-.6-.6V13.354l-2.926.938a.6.6,0,0,1-.469-.038.58.58,0,0,1-.281-.338l-.188-.563a.6.6,0,0,1,.038-.469A.58.58,0,0,1,.457,12.6l3.489-1.125V1.725a.578.578,0,0,1,.6-.6h.6a.578.578,0,0,1,.6.6v9.19l3-.975V1.725a.578.578,0,0,1,.6-.6h.6a.578.578,0,0,1,.6.6V9.378l3-.938V1.725a.578.578,0,0,1,.6-.6h.6a.578.578,0,0,1,.6.6V7.877l3-.975V1.725a.578.578,0,0,1,.6-.6h.6a.578.578,0,0,1,.6.6V6.339L23.076,5.4a.6.6,0,0,1,.469.038.587.587,0,0,1,.281.375Z" transform="translate(2.948 5.875)"/></svg>