<svg xmlns="http://www.w3.org/2000/svg" width="12" height="14" viewBox="0 0 12 14"><g transform="translate(-10 -8)"><rect fill="none" opacity="0" width="12" height="14" transform="translate(10 8)"/><path fill="#1e6c44" d="M4.812,3.3a.513.513,0,0,0,.516.516H8.25v7.047a.513.513,0,0,1-.516.516H.516a.5.5,0,0,1-.365-.15A.5.5,0,0,1,0,10.859V.891A.5.5,0,0,1,.15.525.5.5,0,0,1,.516.375h4.3ZM6.1,5.574V5.6a.263.263,0,0,0,.011-.279.245.245,0,0,0-.226-.129H5.135a.222.222,0,0,0-.215.129L4.125,6.8a7.594,7.594,0,0,0-.344-.687q-.193-.344-.451-.795a.222.222,0,0,0-.215-.129H2.363a.265.265,0,0,0-.215.408l1.289,2L2.148,9.613a.227.227,0,0,0-.011.258A.245.245,0,0,0,2.363,10h.752a.222.222,0,0,0,.215-.129l.408-.709.387-.773L4.92,9.871A.222.222,0,0,0,5.135,10h.752a.245.245,0,0,0,.226-.129A.263.263,0,0,0,6.1,9.592l-1.289-2ZM8.25,3.125H5.5V.375h.129a.5.5,0,0,1,.365.15L8.1,2.631A.5.5,0,0,1,8.25,3Z" transform="translate(12 9)"/></g></svg>