<svg xmlns="http://www.w3.org/2000/svg" width="12" height="14" viewBox="0 0 12 14"><g transform="translate(-9 -8)"><rect fill="none" opacity="0" width="12" height="14" transform="translate(9 8)"/><path fill="#09a8ef" d="M8.25,3.125H5.5V.375h.129a.5.5,0,0,1,.365.15L8.1,2.631A.5.5,0,0,1,8.25,3Zm-2.922.687H8.25v7.047a.513.513,0,0,1-.516.516H.516a.5.5,0,0,1-.365-.15A.5.5,0,0,1,0,10.859V.891A.5.5,0,0,1,.15.525.5.5,0,0,1,.516.375h4.3V3.3a.513.513,0,0,0,.516.516Zm-2.9.344A1.027,1.027,0,0,0,1.4,5.188a.994.994,0,0,0,.3.73.982.982,0,0,0,.72.3,1.018,1.018,0,0,0,.73-.3,1.012,1.012,0,0,0,0-1.461A1.006,1.006,0,0,0,2.428,4.156ZM6.9,9.313V6.906l-.859-.859a.232.232,0,0,0-.172-.064.314.314,0,0,0-.193.064L3.459,8.281,2.6,7.422a.3.3,0,0,0-.183-.064.219.219,0,0,0-.161.064L1.4,8.281V9.313Z" transform="translate(11 9)"/></g></svg>