<?xml version="1.0" encoding="UTF-8"?>
<svg width="20px" height="16px" viewBox="0 0 20 16" version="1.1" xmlns="http://www.w3.org/2000/svg" xmlns:xlink="http://www.w3.org/1999/xlink">
    <!-- Generator: Sketch 50.2 (55047) - http://www.bohemiancoding.com/sketch -->
    <title>icon/invert</title>
    <desc>Created with Sketch.</desc>
    <defs></defs>
    <g id="icon/invert" stroke="none" stroke-width="1" fill="none" fill-rule="evenodd">
        <path d="M16,2 L16,4 L18,4 L18,2 L16,2 Z M16,0 L18,0 C19.1045695,-2.02906125e-16 20,0.8954305 20,2 L20,4 C20,5.1045695 19.1045695,6 18,6 L16,6 C14.8954305,6 14,5.1045695 14,4 L14,2 C14,0.8954305 14.8954305,2.02906125e-16 16,0 Z" id="Rectangle-3-Copy-6" fill="#979797" fill-rule="nonzero"></path>
        <path d="M16,10 L18,10 C19.1045695,10 20,10.8954305 20,12 L20,14 C20,15.1045695 19.1045695,16 18,16 L16,16 C14.8954305,16 14,15.1045695 14,14 L14,12 C14,10.8954305 14.8954305,10 16,10 Z" id="Rectangle-3-Copy-7" fill="#4C6EF5"></path>
        <g id="Group" fill="#979797">
            <path d="M3.68029365,0.209941201 L6.17423801,2.69983908 C6.43725959,2.96286065 6.42166871,3.36429584 6.15876616,3.6271984 C5.90514671,3.88081784 5.53798764,3.90259746 5.27496607,3.63957588 L3.92248772,2.28709754 L3.90308839,12.2266878 C3.90296938,12.4127071 3.80692485,12.5970602 3.68505422,12.7189309 C3.56318359,12.8408015 3.3900178,12.911377 3.20411749,12.911377 C2.83219785,12.9112579 2.52121352,12.6002736 2.5210945,12.228354 L2.50074306,2.28662148 L1.14933584,3.6380287 C0.886433282,3.90093126 0.460243124,3.90105027 0.197221551,3.6380287 C-0.0658000209,3.37500713 -0.0656810066,2.94881697 0.197221551,2.68591441 L2.69830677,0.184829186 C2.82458093,0.0585550288 3.01060026,0.000119014286 3.1892407,0 C3.36788115,0.000119014286 3.55390048,0.0835480288 3.68029365,0.209941201 Z" id="contract-2-copy-2" transform="translate(3.181948, 6.455688) scale(1, -1) translate(-3.181948, -6.455688) "></path>
            <path d="M9.68029365,3.29856425 L12.174238,5.78846213 C12.4372596,6.0514837 12.4216687,6.45291889 12.1587662,6.71582144 C11.9051467,6.96944089 11.5379876,6.9912205 11.2749661,6.72819893 L9.92248772,5.37572058 L9.90308839,15.3153108 C9.90296938,15.5013301 9.80692485,15.6856833 9.68505422,15.8075539 C9.56318359,15.9294245 9.3900178,16 9.20411749,16 C8.83219785,15.999881 8.52121352,15.6888967 8.5210945,15.316977 L8.50074306,5.37524453 L7.14933584,6.72665174 C6.88643328,6.9895543 6.46024312,6.98967332 6.19722155,6.72665174 C5.93419998,6.46363017 5.93431899,6.03744001 6.19722155,5.77453746 L8.69830677,3.27345223 C8.82458093,3.14717808 9.01060026,3.08874206 9.1892407,3.08862305 C9.36788115,3.08874206 9.55390048,3.17217108 9.68029365,3.29856425 Z" id="contract-2-copy-2"></path>
        </g>
    </g>
</svg>