<svg xmlns="http://www.w3.org/2000/svg" width="12" height="14" viewBox="0 0 12 14"><g transform="translate(-4 -3)"><rect fill="none" opacity="0" width="12" height="14" transform="translate(4 3)"/><path fill="#febe2c" d="M4.812,3.3a.513.513,0,0,0,.516.516H8.25v7.047a.513.513,0,0,1-.516.516H.516a.5.5,0,0,1-.365-.15A.5.5,0,0,1,0,10.859V.891A.5.5,0,0,1,.15.525.5.5,0,0,1,.516.375H2.75v.687h.687V.375H4.812ZM2.062,1.063V1.75H2.75V1.063Zm.687,8.25A1.069,1.069,0,0,0,3.62,8.9a1.145,1.145,0,0,0,.247-.945L3.48,6.09a.319.319,0,0,0-.086-.15.206.206,0,0,0-.15-.064H2.75V5.188h.687V4.5H2.75V3.813h.687V3.125H2.75V2.438h.687V1.75H2.75v.687H2.062v.687H2.75v.687H2.062V4.5H2.75v.687H2.062v.687L1.654,7.959a1.081,1.081,0,0,0,.226.935A1.059,1.059,0,0,0,2.75,9.313Zm.709-1.139a.519.519,0,0,1-.2.408.742.742,0,0,1-.494.172.742.742,0,0,1-.494-.172.51.51,0,0,1,0-.816.742.742,0,0,1,.494-.172.742.742,0,0,1,.494.172A.519.519,0,0,1,3.459,8.174ZM8.25,3.125H5.5V.375h.129a.5.5,0,0,1,.365.15L8.1,2.631A.5.5,0,0,1,8.25,3Z" transform="translate(6 4)"/></g></svg>