<svg xmlns="http://www.w3.org/2000/svg" width="12" height="14" viewBox="0 0 12 14"><g transform="translate(-9 -8)"><rect fill="none" opacity="0" width="12" height="14" transform="translate(9 8)"/><path fill="#fd211b" d="M3.91,5.875a1.863,1.863,0,0,1-.086-.623q0-.387.043-.387Q4,4.865,4,5.284A1.438,1.438,0,0,1,3.91,5.875Zm-.043,1.01a2.535,2.535,0,0,0,.752.881,7.84,7.84,0,0,0-1.053.344l-.3.129A11.852,11.852,0,0,0,3.867,6.885ZM1.848,9.57a2.655,2.655,0,0,1,.666-.795L2.6,8.711q-.215.322-.408.559a1.128,1.128,0,0,1-.236.247Q1.848,9.592,1.848,9.57Zm6.4-5.758v7.047a.513.513,0,0,1-.516.516H.516a.5.5,0,0,1-.365-.15A.5.5,0,0,1,0,10.859V.891A.5.5,0,0,1,.15.525.5.5,0,0,1,.516.375h4.3V3.3a.513.513,0,0,0,.516.516Zm-3.094,3.7a2.29,2.29,0,0,1-.924-1.16l.021-.021a5.314,5.314,0,0,0,.129-.687,1.7,1.7,0,0,0,0-.666.544.544,0,0,0-.29-.408.609.609,0,0,0-.462-.032.372.372,0,0,0-.279.29,1.627,1.627,0,0,0-.021.709,7.385,7.385,0,0,0,.193.945,19.433,19.433,0,0,1-.881,1.848,3.536,3.536,0,0,0-.967.645q-.473.473-.215.816a.522.522,0,0,0,.226.161A.7.7,0,0,0,1.934,10a.875.875,0,0,0,.591-.312,5.1,5.1,0,0,0,.72-1.021l.322-.107a9.04,9.04,0,0,1,1.375-.387,3.329,3.329,0,0,0,.72.3,2.434,2.434,0,0,0,.655.107.535.535,0,0,0,.569-.569.516.516,0,0,0-.14-.354Q6.4,7.336,5.156,7.508ZM8.1,2.631A.5.5,0,0,1,8.25,3v.129H5.5V.375h.129a.5.5,0,0,1,.365.15ZM6.51,8.109l-.064.021a.758.758,0,0,1-.258,0,5.359,5.359,0,0,1-.6-.215,3.006,3.006,0,0,1,.645.021.446.446,0,0,1,.258.086Q6.553,8.088,6.51,8.109Z" transform="translate(11 9)"/></g></svg>